<svg width="193" height="152" viewBox="0 0 193 152" fill="none" xmlns="http://www.w3.org/2000/svg">
<path fill-rule="evenodd" clip-rule="evenodd" d="M86.4528 1.49418L168.881 135C170.072 136.789 172.812 140.726 174.241 142.158C178.581 146.505 183.961 146.872 189.503 147.25C190.13 147.293 190.759 147.336 191.389 147.385C192.304 147.456 193 148.226 193 149.146V150.211C193 151.199 192.2 152 191.213 152H121.537C120.551 152 119.751 151.199 119.751 150.211C119.751 149.222 120.551 148.421 121.537 148.421H129.577C131.661 148.421 136.187 148.063 137.617 146.632C138.095 146.152 138.51 145.801 138.895 145.475C139.946 144.585 140.775 143.883 142.083 141.263C143.869 137.684 136.723 130.526 133.15 127.842C132.611 127.437 131.685 126.645 130.421 125.563C123.314 119.481 105.526 104.258 85.8061 97.4211C67.2259 90.9789 47.6928 90.5614 40.2487 91.1579C36.3778 91.4561 27.0282 93.4842 20.5965 99.2105C14.1649 104.937 13.748 111.737 14.3435 114.421C14.9391 117.404 17.3807 124.442 22.3831 128.737C28.6361 134.105 34.889 137.684 39.3554 139.474C40.5127 139.937 42.4494 140.821 44.7618 141.877C50.6417 144.561 58.9501 148.354 63.0456 149.161C63.7717 149.304 64.3674 149.917 64.3674 150.658C64.3674 151.399 63.7675 152 63.0274 152H10.7704C10.2081 152 9.67979 151.74 9.3527 151.282C5.66684 146.119 -0.63005 134.921 0.0510323 126.053C0.765658 116.747 3.92192 110.246 5.41073 108.158C8.09057 103.982 15.7728 94.5579 25.0629 90.2632L31.7452 86.9166C32.0483 86.7648 32.302 86.5298 32.4768 86.239L83.4027 1.51242C84.0923 0.365122 85.7496 0.355214 86.4528 1.49418ZM78.6599 30.3158L48.2883 81.3158H76.8733C92.5951 82.0316 107.84 87.5789 113.498 90.2632L78.6599 30.3158Z" fill="black"/>
</svg>
